<svg xmlns="http://www.w3.org/2000/svg" width="1920" height="1080"><path d="M297,1284L-52,1334L621,1286Z" fill="#3c52b9" stroke="#3c52b9" stroke-width="1.51"/><path d="M621,1286L-52,1334L849,1292Z" fill="#4256bc" stroke="#4256bc" stroke-width="1.51"/><path d="M-29,-237L604,-233L1234,-249Z" fill="#4559be" stroke="#4559be" stroke-width="1.51"/><path d="M604,-233L716,-231L1234,-249Z" fill="#4c5fc1" stroke="#4c5fc1" stroke-width="1.51"/><path d="M716,-231L839,-225L1234,-249Z" fill="#4f61c3" stroke="#4f61c3" stroke-width="1.51"/><path d="M849,1292L-52,1334L1352,1320Z" fill="#485cc0" stroke="#485cc0" stroke-width="1.51"/><path d="M1458,1305L1352,1320L1583,1298Z" fill="#4156bc" stroke="#4156bc" stroke-width="1.51"/><path d="M1234,-249L1520,-230L1971,-228Z" fill="#3d53ba" stroke="#3d53ba" stroke-width="1.51"/><path d="M1520,-230L1764,-191L1971,-228Z" fill="#3950b7" stroke="#3950b7" stroke-width="1.51"/><path d="M1583,1298L1352,1320L1990,1334Z" fill="#3b52b9" stroke="#3b52b9" stroke-width="1.51"/><path d="M1758,1261L1583,1298L1990,1334Z" fill="#394fb7" stroke="#394fb7" stroke-width="1.51"/><path d="M2040,284L2056,394L2073,107Z" fill="#4459be" stroke="#4459be" stroke-width="1.51"/><path d="M1969,-59L2073,107L2079,-72Z" fill="#3a50b8" stroke="#3a50b8" stroke-width="1.51"/><path d="M2076,989L2055,1118L2083,1256Z" fill="#374eb6" stroke="#374eb6" stroke-width="1.51"/><path d="M2089,683L1982,833L2090,845Z" fill="#465abf" stroke="#465abf" stroke-width="1.51"/><path d="M1982,833L2076,989L2090,845Z" fill="#4156bd" stroke="#4156bd" stroke-width="1.51"/><path d="M2076,989L2083,1256L2090,845Z" fill="#3b51b9" stroke="#3b51b9" stroke-width="1.51"/><path d="M1935,563L2089,683L2115,582Z" fill="#4e60c2" stroke="#4e60c2" stroke-width="1.51"/><path d="M2056,394L1935,563L2115,582Z" fill="#5062c3" stroke="#5062c3" stroke-width="1.51"/><path d="M2073,107L2056,394L2115,582Z" fill="#485cc0" stroke="#485cc0" stroke-width="1.51"/><path d="M2079,-72L2073,107L2115,582Z" fill="#4156bc" stroke="#4156bc" stroke-width="1.51"/><path d="M2089,683L2090,845L2115,582Z" fill="#495cbf" stroke="#495cbf" stroke-width="1.51"/><path d="M2090,845L2083,1256L2115,582Z" fill="#4055bb" stroke="#4055bb" stroke-width="1.51"/><path d="M1911,129L2040,284L2073,107Z" fill="#4256bd" stroke="#4256bd" stroke-width="1.51"/><path d="M1969,-59L1911,129L2073,107Z" fill="#3d53ba" stroke="#3d53ba" stroke-width="1.51"/><path d="M1954,1021L2055,1118L2076,989Z" fill="#3c52b9" stroke="#3c52b9" stroke-width="1.51"/><path d="M1982,833L1954,1021L2076,989Z" fill="#3f55bc" stroke="#3f55bc" stroke-width="1.51"/><path d="M2036,-223L1969,-59L2079,-72Z" fill="#364db5" stroke="#364db5" stroke-width="1.51"/><path d="M2055,1118L1927,1112L2083,1256Z" fill="#374eb6" stroke="#374eb6" stroke-width="1.51"/><path d="M1921,709L1982,833L2089,683Z" fill="#495cc1" stroke="#495cc1" stroke-width="1.51"/><path d="M1935,563L1921,709L2089,683Z" fill="#4e60c2" stroke="#4e60c2" stroke-width="1.51"/><path d="M1927,1112L1990,1334L2083,1256Z" fill="#354db6" stroke="#354db6" stroke-width="1.51"/><path d="M1971,-228L1969,-59L2036,-223Z" fill="#354db5" stroke="#354db5" stroke-width="1.51"/><path d="M1911,129L1907,268L2040,284Z" fill="#4659bf" stroke="#4659bf" stroke-width="1.51"/><path d="M1879,426L1935,563L2056,394Z" fill="#5062c4" stroke="#5062c4" stroke-width="1.51"/><path d="M1954,1021L1927,1112L2055,1118Z" fill="#3b51b9" stroke="#3b51b9" stroke-width="1.51"/><path d="M2040,284L1907,268L2056,394Z" fill="#485bc0" stroke="#485bc0" stroke-width="1.51"/><path d="M1907,268L1879,426L2056,394Z" fill="#4c5ec2" stroke="#4c5ec2" stroke-width="1.51"/><path d="M1758,-60L1911,129L1969,-59Z" fill="#3e54bb" stroke="#3e54bb" stroke-width="1.51"/><path d="M1764,-191L1969,-59L1971,-228Z" fill="#374eb6" stroke="#374eb6" stroke-width="1.51"/><path d="M1831,882L1954,1021L1982,833Z" fill="#4358be" stroke="#4358be" stroke-width="1.51"/><path d="M1927,1112L1758,1261L1990,1334Z" fill="#384fb7" stroke="#384fb7" stroke-width="1.51"/><path d="M1764,-191L1758,-60L1969,-59Z" fill="#3c51b9" stroke="#3c51b9" stroke-width="1.51"/><path d="M1921,709L1831,882L1982,833Z" fill="#485cc1" stroke="#485cc1" stroke-width="1.51"/><path d="M1834,592L1921,709L1935,563Z" fill="#5163c5" stroke="#5163c5" stroke-width="1.51"/><path d="M1797,1103L1758,1261L1927,1112Z" fill="#3c52ba" stroke="#3c52ba" stroke-width="1.51"/><path d="M1758,-60L1729,83L1911,129Z" fill="#4256be" stroke="#4256be" stroke-width="1.51"/><path d="M1826,207L1907,268L1911,129Z" fill="#455ac0" stroke="#455ac0" stroke-width="1.51"/><path d="M1831,882L1779,1014L1954,1021Z" fill="#4357be" stroke="#4357be" stroke-width="1.51"/><path d="M1797,1103L1927,1112L1954,1021Z" fill="#3e54bb" stroke="#3e54bb" stroke-width="1.51"/><path d="M1779,1014L1797,1103L1954,1021Z" fill="#4055bc" stroke="#4055bc" stroke-width="1.51"/><path d="M1770,348L1879,426L1907,268Z" fill="#4d60c3" stroke="#4d60c3" stroke-width="1.51"/><path d="M1879,426L1834,592L1935,563Z" fill="#5466c6" stroke="#5466c6" stroke-width="1.51"/><path d="M1731,680L1831,882L1921,709Z" fill="#4c5fc3" stroke="#4c5fc3" stroke-width="1.51"/><path d="M1834,592L1731,680L1921,709Z" fill="#5163c5" stroke="#5163c5" stroke-width="1.51"/><path d="M1729,83L1826,207L1911,129Z" fill="#4459c0" stroke="#4459c0" stroke-width="1.51"/><path d="M1826,207L1770,348L1907,268Z" fill="#4a5ec2" stroke="#4a5ec2" stroke-width="1.51"/><path d="M1731,680L1672,814L1831,882Z" fill="#4d60c4" stroke="#4d60c4" stroke-width="1.51"/><path d="M1688,377L1667,582L1834,592Z" fill="#5768c9" stroke="#5768c9" stroke-width="1.51"/><path d="M1688,377L1834,592L1879,426Z" fill="#5365c7" stroke="#5365c7" stroke-width="1.51"/><path d="M1770,348L1688,377L1879,426Z" fill="#5062c5" stroke="#5062c5" stroke-width="1.51"/><path d="M-29,-237L252,-203L604,-233Z" fill="#3c52b9" stroke="#3c52b9" stroke-width="1.51"/><path d="M1520,-230L1621,-169L1764,-191Z" fill="#3d53ba" stroke="#3d53ba" stroke-width="1.51"/><path d="M1681,210L1770,348L1826,207Z" fill="#4b5ec3" stroke="#4b5ec3" stroke-width="1.51"/><path d="M1729,83L1681,210L1826,207Z" fill="#475bc1" stroke="#475bc1" stroke-width="1.51"/><path d="M1672,814L1779,1014L1831,882Z" fill="#475cc1" stroke="#475cc1" stroke-width="1.51"/><path d="M1667,582L1731,680L1834,592Z" fill="#5466c8" stroke="#5466c8" stroke-width="1.51"/><path d="M1691,687L1672,814L1731,680Z" fill="#5163c6" stroke="#5163c6" stroke-width="1.51"/><path d="M1672,814L1666,1035L1779,1014Z" fill="#475bc1" stroke="#475bc1" stroke-width="1.51"/><path d="M1595,1092L1758,1261L1797,1103Z" fill="#4055bc" stroke="#4055bc" stroke-width="1.51"/><path d="M1666,1035L1595,1092L1797,1103Z" fill="#4358bf" stroke="#4358bf" stroke-width="1.51"/><path d="M1779,1014L1666,1035L1797,1103Z" fill="#4257be" stroke="#4257be" stroke-width="1.51"/><path d="M1029,1261L849,1292L1352,1320Z" fill="#4d60c2" stroke="#4d60c2" stroke-width="1.51"/><path d="M1649,-56L1729,83L1758,-60Z" fill="#4257be" stroke="#4257be" stroke-width="1.51"/><path d="M1649,-56L1758,-60L1764,-191Z" fill="#3e53bb" stroke="#3e53bb" stroke-width="1.51"/><path d="M1621,-169L1649,-56L1764,-191Z" fill="#3e53bb" stroke="#3e53bb" stroke-width="1.51"/><path d="M1681,210L1688,377L1770,348Z" fill="#4e61c5" stroke="#4e61c5" stroke-width="1.51"/><path d="M1595,1092L1583,1298L1758,1261Z" fill="#3f54bb" stroke="#3f54bb" stroke-width="1.51"/><path d="M1649,-56L1624,80L1729,83Z" fill="#4559bf" stroke="#4559bf" stroke-width="1.51"/><path d="M1667,582L1691,687L1731,680Z" fill="#5466c7" stroke="#5466c7" stroke-width="1.51"/><path d="M1534,1142L1583,1298L1595,1092Z" fill="#4257be" stroke="#4257be" stroke-width="1.51"/><path d="M1510,868L1508,980L1666,1035Z" fill="#4a5dc4" stroke="#4a5dc4" stroke-width="1.51"/><path d="M1510,868L1666,1035L1672,814Z" fill="#4b5ec4" stroke="#4b5ec4" stroke-width="1.51"/><path d="M1508,508L1667,582L1688,377Z" fill="#586aca" stroke="#586aca" stroke-width="1.51"/><path d="M1624,80L1681,210L1729,83Z" fill="#475bc2" stroke="#475bc2" stroke-width="1.51"/><path d="M1479,207L1463,366L1681,210Z" fill="#5063c8" stroke="#5063c8" stroke-width="1.51"/><path d="M1681,210L1463,366L1688,377Z" fill="#5164c7" stroke="#5164c7" stroke-width="1.51"/><path d="M1463,366L1508,508L1688,377Z" fill="#5668ca" stroke="#5668ca" stroke-width="1.51"/><path d="M1505,665L1672,814L1691,687Z" fill="#5265c8" stroke="#5265c8" stroke-width="1.51"/><path d="M1667,582L1505,665L1691,687Z" fill="#5668c9" stroke="#5668c9" stroke-width="1.51"/><path d="M1505,665L1510,868L1672,814Z" fill="#5164c8" stroke="#5164c8" stroke-width="1.51"/><path d="M1624,80L1479,207L1681,210Z" fill="#4b5fc4" stroke="#4b5fc4" stroke-width="1.51"/><path d="M1213,1271L1029,1261L1352,1320Z" fill="#4a5dc0" stroke="#4a5dc0" stroke-width="1.51"/><path d="M1513,45L1624,80L1649,-56Z" fill="#465ac1" stroke="#465ac1" stroke-width="1.51"/><path d="M1508,980L1595,1092L1666,1035Z" fill="#475bc1" stroke="#475bc1" stroke-width="1.51"/><path d="M1508,508L1505,665L1667,582Z" fill="#5a6bcc" stroke="#5a6bcc" stroke-width="1.51"/><path d="M1621,-169L1523,-92L1649,-56Z" fill="#4156bd" stroke="#4156bd" stroke-width="1.51"/><path d="M1523,-92L1513,45L1649,-56Z" fill="#4559c0" stroke="#4559c0" stroke-width="1.51"/><path d="M1513,45L1479,207L1624,80Z" fill="#4a5ec4" stroke="#4a5ec4" stroke-width="1.51"/><path d="M1520,-230L1523,-92L1621,-169Z" fill="#4055bc" stroke="#4055bc" stroke-width="1.51"/><path d="M1534,1142L1458,1305L1583,1298Z" fill="#4156bd" stroke="#4156bd" stroke-width="1.51"/><path d="M1508,980L1534,1142L1595,1092Z" fill="#475bc1" stroke="#475bc1" stroke-width="1.51"/><path d="M839,-225L987,-200L1234,-249Z" fill="#4e61c2" stroke="#4e61c2" stroke-width="1.51"/><path d="M1373,269L1463,366L1479,207Z" fill="#5466c8" stroke="#5466c8" stroke-width="1.51"/><path d="M1349,546L1505,665L1508,508Z" fill="#5d6ece" stroke="#5d6ece" stroke-width="1.51"/><path d="M1505,665L1312,802L1510,868Z" fill="#5567c9" stroke="#5567c9" stroke-width="1.51"/><path d="M1234,-249L1290,-171L1520,-230Z" fill="#4559be" stroke="#4559be" stroke-width="1.51"/><path d="M1389,-29L1513,45L1523,-92Z" fill="#475bc1" stroke="#475bc1" stroke-width="1.51"/><path d="M1520,-230L1290,-171L1523,-92Z" fill="#4458be" stroke="#4458be" stroke-width="1.51"/><path d="M1290,-171L1389,-29L1523,-92Z" fill="#475bc1" stroke="#475bc1" stroke-width="1.51"/><path d="M1508,980L1341,1094L1534,1142Z" fill="#495dc2" stroke="#495dc2" stroke-width="1.51"/><path d="M1341,1094L1458,1305L1534,1142Z" fill="#465abf" stroke="#465abf" stroke-width="1.51"/><path d="M1296,70L1479,207L1513,45Z" fill="#4e60c5" stroke="#4e60c5" stroke-width="1.51"/><path d="M1281,953L1508,980L1510,868Z" fill="#4f61c6" stroke="#4f61c6" stroke-width="1.51"/><path d="M1316,410L1349,546L1463,366Z" fill="#5d6ecd" stroke="#5d6ecd" stroke-width="1.51"/><path d="M1281,740L1312,802L1505,665Z" fill="#596bcc" stroke="#596bcc" stroke-width="1.51"/><path d="M1463,366L1349,546L1508,508Z" fill="#5c6dcd" stroke="#5c6dcd" stroke-width="1.51"/><path d="M1312,802L1281,953L1510,868Z" fill="#5365c8" stroke="#5365c8" stroke-width="1.51"/><path d="M1389,-29L1296,70L1513,45Z" fill="#4b5fc4" stroke="#4b5fc4" stroke-width="1.51"/><path d="M1341,1094L1352,1320L1458,1305Z" fill="#455abf" stroke="#455abf" stroke-width="1.51"/><path d="M1281,953L1341,1094L1508,980Z" fill="#4e61c5" stroke="#4e61c5" stroke-width="1.51"/><path d="M1349,546L1281,740L1505,665Z" fill="#5c6dcd" stroke="#5c6dcd" stroke-width="1.51"/><path d="M1296,70L1373,269L1479,207Z" fill="#5264c7" stroke="#5264c7" stroke-width="1.51"/><path d="M1373,269L1316,410L1463,366Z" fill="#586acb" stroke="#586acb" stroke-width="1.51"/><path d="M1341,1094L1236,1194L1352,1320Z" fill="#495cc1" stroke="#495cc1" stroke-width="1.51"/><path d="M1212,547L1281,740L1349,546Z" fill="#6071cf" stroke="#6071cf" stroke-width="1.51"/><path d="M1296,70L1193,295L1373,269Z" fill="#5667c9" stroke="#5667c9" stroke-width="1.51"/><path d="M1290,-171L1177,-67L1389,-29Z" fill="#4b5ec2" stroke="#4b5ec2" stroke-width="1.51"/><path d="M1234,59L1296,70L1389,-29Z" fill="#4f61c5" stroke="#4f61c5" stroke-width="1.51"/><path d="M1177,-67L1234,59L1389,-29Z" fill="#4e61c4" stroke="#4e61c4" stroke-width="1.51"/><path d="M1236,1194L1213,1271L1352,1320Z" fill="#495cc0" stroke="#495cc0" stroke-width="1.51"/><path d="M1193,295L1316,410L1373,269Z" fill="#5a6bcc" stroke="#5a6bcc" stroke-width="1.51"/><path d="M1212,547L1238,738L1281,740Z" fill="#5f70ce" stroke="#5f70ce" stroke-width="1.51"/><path d="M1234,59L1193,295L1296,70Z" fill="#5466c9" stroke="#5466c9" stroke-width="1.51"/><path d="M1238,825L1281,953L1312,802Z" fill="#5668ca" stroke="#5668ca" stroke-width="1.51"/><path d="M1316,410L1212,547L1349,546Z" fill="#6172d0" stroke="#6172d0" stroke-width="1.51"/><path d="M1281,953L1144,1013L1341,1094Z" fill="#5063c7" stroke="#5063c7" stroke-width="1.51"/><path d="M1144,1013L1236,1194L1341,1094Z" fill="#4f61c4" stroke="#4f61c4" stroke-width="1.51"/><path d="M1140,430L1212,547L1316,410Z" fill="#6172d0" stroke="#6172d0" stroke-width="1.51"/><path d="M1193,295L1140,430L1316,410Z" fill="#5f6fce" stroke="#5f6fce" stroke-width="1.51"/><path d="M1281,740L1238,825L1312,802Z" fill="#596bcc" stroke="#596bcc" stroke-width="1.51"/><path d="M1238,738L1238,825L1281,740Z" fill="#5b6ccd" stroke="#5b6ccd" stroke-width="1.51"/><path d="M1035,123L1193,295L1234,59Z" fill="#5769ca" stroke="#5769ca" stroke-width="1.51"/><path d="M1234,-249L1177,-67L1290,-171Z" fill="#4a5dc1" stroke="#4a5dc1" stroke-width="1.51"/><path d="M451,1269L297,1284L621,1286Z" fill="#4257bd" stroke="#4257bd" stroke-width="1.51"/><path d="M1212,547L1069,654L1238,738Z" fill="#6272d0" stroke="#6272d0" stroke-width="1.51"/><path d="M1238,825L1144,1013L1281,953Z" fill="#5567c9" stroke="#5567c9" stroke-width="1.51"/><path d="M1035,123L1059,262L1193,295Z" fill="#5c6dcd" stroke="#5c6dcd" stroke-width="1.51"/><path d="M1177,-67L1060,-7L1234,59Z" fill="#5264c6" stroke="#5264c6" stroke-width="1.51"/><path d="M987,-200L1177,-67L1234,-249Z" fill="#4d5fc2" stroke="#4d5fc2" stroke-width="1.51"/><path d="M1144,1013L987,1148L1236,1194Z" fill="#5264c6" stroke="#5264c6" stroke-width="1.51"/><path d="M987,1148L1029,1261L1236,1194Z" fill="#5062c4" stroke="#5062c4" stroke-width="1.51"/><path d="M1034,965L1144,1013L1238,825Z" fill="#5769cb" stroke="#5769cb" stroke-width="1.51"/><path d="M988,806L1034,965L1238,825Z" fill="#5b6dcd" stroke="#5b6dcd" stroke-width="1.51"/><path d="M988,806L1238,825L1238,738Z" fill="#5d6ecd" stroke="#5d6ecd" stroke-width="1.51"/><path d="M1069,654L988,806L1238,738Z" fill="#6071cf" stroke="#6071cf" stroke-width="1.51"/><path d="M1029,1261L1213,1271L1236,1194Z" fill="#4d5fc2" stroke="#4d5fc2" stroke-width="1.51"/><path d="M1060,-7L1035,123L1234,59Z" fill="#5567c8" stroke="#5567c8" stroke-width="1.51"/><path d="M1085,370L1140,430L1193,295Z" fill="#6071cf" stroke="#6071cf" stroke-width="1.51"/><path d="M1140,430L1053,579L1212,547Z" fill="#6676d2" stroke="#6676d2" stroke-width="1.51"/><path d="M1053,579L1069,654L1212,547Z" fill="#6576d2" stroke="#6576d2" stroke-width="1.51"/><path d="M1059,262L1085,370L1193,295Z" fill="#5e6fce" stroke="#5e6fce" stroke-width="1.51"/><path d="M987,-200L1060,-7L1177,-67Z" fill="#5163c5" stroke="#5163c5" stroke-width="1.51"/><path d="M1085,370L1053,579L1140,430Z" fill="#6575d1" stroke="#6575d1" stroke-width="1.51"/><path d="M1034,965L987,1148L1144,1013Z" fill="#5668c8" stroke="#5668c8" stroke-width="1.51"/><path d="M78,1298L-52,1334L297,1284Z" fill="#374eb6" stroke="#374eb6" stroke-width="1.51"/><path d="M916,1114L987,1148L1034,965Z" fill="#5769c9" stroke="#5769c9" stroke-width="1.51"/><path d="M987,-200L897,-14L1060,-7Z" fill="#5566c7" stroke="#5566c7" stroke-width="1.51"/><path d="M1059,262L893,399L1085,370Z" fill="#6273d0" stroke="#6273d0" stroke-width="1.51"/><path d="M893,399L1053,579L1085,370Z" fill="#6677d2" stroke="#6677d2" stroke-width="1.51"/><path d="M893,399L855,596L1053,579Z" fill="#6a7bd4" stroke="#6a7bd4" stroke-width="1.51"/><path d="M1035,123L885,236L1059,262Z" fill="#5d6fcd" stroke="#5d6fcd" stroke-width="1.51"/><path d="M885,236L893,399L1059,262Z" fill="#6172d0" stroke="#6172d0" stroke-width="1.51"/><path d="M897,-14L1035,123L1060,-7Z" fill="#5769c9" stroke="#5769c9" stroke-width="1.51"/><path d="M1053,579L885,697L1069,654Z" fill="#6677d3" stroke="#6677d3" stroke-width="1.51"/><path d="M885,697L988,806L1069,654Z" fill="#6475d1" stroke="#6475d1" stroke-width="1.51"/><path d="M855,596L885,697L1053,579Z" fill="#6878d3" stroke="#6878d3" stroke-width="1.51"/><path d="M988,806L847,950L1034,965Z" fill="#5d6ece" stroke="#5d6ece" stroke-width="1.51"/><path d="M847,950L916,1114L1034,965Z" fill="#596bca" stroke="#596bca" stroke-width="1.51"/><path d="M897,-14L849,109L1035,123Z" fill="#586aca" stroke="#586aca" stroke-width="1.51"/><path d="M849,109L885,236L1035,123Z" fill="#5c6dcd" stroke="#5c6dcd" stroke-width="1.51"/><path d="M987,1148L849,1292L1029,1261Z" fill="#5365c5" stroke="#5365c5" stroke-width="1.51"/><path d="M252,-203L440,-194L604,-233Z" fill="#4056bc" stroke="#4056bc" stroke-width="1.51"/><path d="M740,1263L621,1286L849,1292Z" fill="#4a5ec1" stroke="#4a5ec1" stroke-width="1.51"/><path d="M788,508L855,596L893,399Z" fill="#6777d3" stroke="#6777d3" stroke-width="1.51"/><path d="M916,1114L849,1292L987,1148Z" fill="#5365c6" stroke="#5365c6" stroke-width="1.51"/><path d="M839,-225L897,-14L987,-200Z" fill="#5163c5" stroke="#5163c5" stroke-width="1.51"/><path d="M885,697L833,847L988,806Z" fill="#6071cf" stroke="#6071cf" stroke-width="1.51"/><path d="M833,847L847,950L988,806Z" fill="#5c6ecd" stroke="#5c6ecd" stroke-width="1.51"/><path d="M788,712L833,847L885,697Z" fill="#6071cf" stroke="#6071cf" stroke-width="1.51"/><path d="M885,236L775,265L893,399Z" fill="#5f70ce" stroke="#5f70ce" stroke-width="1.51"/><path d="M839,-225L707,-100L897,-14Z" fill="#4f62c4" stroke="#4f62c4" stroke-width="1.51"/><path d="M847,950L742,956L916,1114Z" fill="#5668c9" stroke="#5668c9" stroke-width="1.51"/><path d="M742,956L685,1130L916,1114Z" fill="#5365c7" stroke="#5365c7" stroke-width="1.51"/><path d="M740,1263L849,1292L916,1114Z" fill="#5062c3" stroke="#5062c3" stroke-width="1.51"/><path d="M685,1130L740,1263L916,1114Z" fill="#5062c4" stroke="#5062c4" stroke-width="1.51"/><path d="M849,109L775,265L885,236Z" fill="#5b6ccc" stroke="#5b6ccc" stroke-width="1.51"/><path d="M736,445L788,508L893,399Z" fill="#6474d1" stroke="#6474d1" stroke-width="1.51"/><path d="M775,265L736,445L893,399Z" fill="#6171cf" stroke="#6171cf" stroke-width="1.51"/><path d="M692,61L849,109L897,-14Z" fill="#5567c8" stroke="#5567c8" stroke-width="1.51"/><path d="M707,-100L692,61L897,-14Z" fill="#5163c6" stroke="#5163c6" stroke-width="1.51"/><path d="M855,596L788,712L885,697Z" fill="#6374d1" stroke="#6374d1" stroke-width="1.51"/><path d="M716,-231L707,-100L839,-225Z" fill="#4b5fc1" stroke="#4b5fc1" stroke-width="1.51"/><path d="M833,847L742,956L847,950Z" fill="#586acb" stroke="#586acb" stroke-width="1.51"/><path d="M692,61L775,265L849,109Z" fill="#5768cb" stroke="#5768cb" stroke-width="1.51"/><path d="M788,508L788,712L855,596Z" fill="#6575d2" stroke="#6575d2" stroke-width="1.51"/><path d="M707,886L742,956L833,847Z" fill="#586acb" stroke="#586acb" stroke-width="1.51"/><path d="M692,61L628,125L775,265Z" fill="#5567c9" stroke="#5567c9" stroke-width="1.51"/><path d="M788,712L707,886L833,847Z" fill="#5c6dcd" stroke="#5c6dcd" stroke-width="1.51"/><path d="M584,367L736,445L775,265Z" fill="#5d6fce" stroke="#5d6fce" stroke-width="1.51"/><path d="M533,638L632,845L788,712Z" fill="#5c6dcd" stroke="#5c6dcd" stroke-width="1.51"/><path d="M582,498L533,638L788,712Z" fill="#6071cf" stroke="#6071cf" stroke-width="1.51"/><path d="M632,845L707,886L788,712Z" fill="#5a6bcc" stroke="#5a6bcc" stroke-width="1.51"/><path d="M582,498L788,712L788,508Z" fill="#6475d1" stroke="#6475d1" stroke-width="1.51"/><path d="M736,445L582,498L788,508Z" fill="#6373d1" stroke="#6373d1" stroke-width="1.51"/><path d="M628,125L575,224L775,265Z" fill="#5668ca" stroke="#5668ca" stroke-width="1.51"/><path d="M575,224L584,367L775,265Z" fill="#596acc" stroke="#596acc" stroke-width="1.51"/><path d="M604,-233L707,-100L716,-231Z" fill="#495dc0" stroke="#495dc0" stroke-width="1.51"/><path d="M685,1130L621,1286L740,1263Z" fill="#4a5ec1" stroke="#4a5ec1" stroke-width="1.51"/><path d="M707,886L613,934L742,956Z" fill="#5567c9" stroke="#5567c9" stroke-width="1.51"/><path d="M613,934L685,1130L742,956Z" fill="#5164c7" stroke="#5164c7" stroke-width="1.51"/><path d="M588,1154L621,1286L685,1130Z" fill="#4a5dc2" stroke="#4a5dc2" stroke-width="1.51"/><path d="M584,367L582,498L736,445Z" fill="#5f70ce" stroke="#5f70ce" stroke-width="1.51"/><path d="M613,934L588,1154L685,1130Z" fill="#4e61c5" stroke="#4e61c5" stroke-width="1.51"/><path d="M530,-84L692,61L707,-100Z" fill="#4d60c3" stroke="#4d60c3" stroke-width="1.51"/><path d="M632,845L613,934L707,886Z" fill="#5667ca" stroke="#5667ca" stroke-width="1.51"/><path d="M604,-233L530,-84L707,-100Z" fill="#495cc0" stroke="#495cc0" stroke-width="1.51"/><path d="M533,638L481,800L632,845Z" fill="#5869ca" stroke="#5869ca" stroke-width="1.51"/><path d="M530,-84L628,125L692,61Z" fill="#4f61c5" stroke="#4f61c5" stroke-width="1.51"/><path d="M445,1024L588,1154L613,934Z" fill="#4d60c4" stroke="#4d60c4" stroke-width="1.51"/><path d="M588,1154L451,1269L621,1286Z" fill="#465abf" stroke="#465abf" stroke-width="1.51"/><path d="M530,-84L448,89L628,125Z" fill="#4c60c4" stroke="#4c60c4" stroke-width="1.51"/><path d="M481,800L613,934L632,845Z" fill="#5567c9" stroke="#5567c9" stroke-width="1.51"/><path d="M437,-35L448,89L530,-84Z" fill="#495cc2" stroke="#495cc2" stroke-width="1.51"/><path d="M448,89L575,224L628,125Z" fill="#5163c7" stroke="#5163c7" stroke-width="1.51"/><path d="M440,-194L530,-84L604,-233Z" fill="#4559bf" stroke="#4559bf" stroke-width="1.51"/><path d="M575,224L466,365L584,367Z" fill="#5869ca" stroke="#5869ca" stroke-width="1.51"/><path d="M481,800L445,1024L613,934Z" fill="#5063c7" stroke="#5063c7" stroke-width="1.51"/><path d="M438,724L481,800L533,638Z" fill="#5769cb" stroke="#5769cb" stroke-width="1.51"/><path d="M466,365L582,498L584,367Z" fill="#5b6ccc" stroke="#5b6ccc" stroke-width="1.51"/><path d="M421,494L533,638L582,498Z" fill="#5f70cf" stroke="#5f70cf" stroke-width="1.51"/><path d="M466,365L421,494L582,498Z" fill="#5b6dcd" stroke="#5b6dcd" stroke-width="1.51"/><path d="M382,1140L451,1269L588,1154Z" fill="#465abf" stroke="#465abf" stroke-width="1.51"/><path d="M445,1024L382,1140L588,1154Z" fill="#485cc1" stroke="#485cc1" stroke-width="1.51"/><path d="M448,89L396,213L575,224Z" fill="#5062c7" stroke="#5062c7" stroke-width="1.51"/><path d="M396,213L466,365L575,224Z" fill="#5466c8" stroke="#5466c8" stroke-width="1.51"/><path d="M325,831L445,1024L481,800Z" fill="#4f62c7" stroke="#4f62c7" stroke-width="1.51"/><path d="M440,-194L437,-35L530,-84Z" fill="#4559bf" stroke="#4559bf" stroke-width="1.51"/><path d="M421,494L438,724L533,638Z" fill="#5b6ccd" stroke="#5b6ccd" stroke-width="1.51"/><path d="M421,494L272,539L438,724Z" fill="#5a6ccc" stroke="#5a6ccc" stroke-width="1.51"/><path d="M325,831L337,1031L445,1024Z" fill="#4a5dc4" stroke="#4a5dc4" stroke-width="1.51"/><path d="M396,213L321,295L466,365Z" fill="#5265c8" stroke="#5265c8" stroke-width="1.51"/><path d="M438,724L325,831L481,800Z" fill="#5365c9" stroke="#5365c9" stroke-width="1.51"/><path d="M272,539L271,732L438,724Z" fill="#5668ca" stroke="#5668ca" stroke-width="1.51"/><path d="M237,-113L437,-35L440,-194Z" fill="#4257be" stroke="#4257be" stroke-width="1.51"/><path d="M437,-35L338,36L448,89Z" fill="#485cc2" stroke="#485cc2" stroke-width="1.51"/><path d="M273,384L421,494L466,365Z" fill="#5769cb" stroke="#5769cb" stroke-width="1.51"/><path d="M321,295L273,384L466,365Z" fill="#5366c9" stroke="#5366c9" stroke-width="1.51"/><path d="M252,-203L237,-113L440,-194Z" fill="#3f54bb" stroke="#3f54bb" stroke-width="1.51"/><path d="M337,1031L382,1140L445,1024Z" fill="#475bc1" stroke="#475bc1" stroke-width="1.51"/><path d="M338,36L396,213L448,89Z" fill="#4b5ec4" stroke="#4b5ec4" stroke-width="1.51"/><path d="M382,1140L297,1284L451,1269Z" fill="#4156bd" stroke="#4156bd" stroke-width="1.51"/><path d="M237,-113L338,36L437,-35Z" fill="#4458bf" stroke="#4458bf" stroke-width="1.51"/><path d="M271,732L325,831L438,724Z" fill="#5264c7" stroke="#5264c7" stroke-width="1.51"/><path d="M273,384L272,539L421,494Z" fill="#5869cb" stroke="#5869cb" stroke-width="1.51"/><path d="M337,1031L311,1128L382,1140Z" fill="#4559bf" stroke="#4559bf" stroke-width="1.51"/><path d="M311,1128L297,1284L382,1140Z" fill="#4256bd" stroke="#4256bd" stroke-width="1.51"/><path d="M338,36L177,268L396,213Z" fill="#4b5ec4" stroke="#4b5ec4" stroke-width="1.51"/><path d="M177,268L321,295L396,213Z" fill="#4e61c6" stroke="#4e61c6" stroke-width="1.51"/><path d="M152,46L177,268L338,36Z" fill="#475ac1" stroke="#475ac1" stroke-width="1.51"/><path d="M325,831L126,942L337,1031Z" fill="#495cc3" stroke="#495cc3" stroke-width="1.51"/><path d="M126,942L311,1128L337,1031Z" fill="#4559c0" stroke="#4559c0" stroke-width="1.51"/><path d="M237,-113L152,46L338,36Z" fill="#4257be" stroke="#4257be" stroke-width="1.51"/><path d="M-29,-237L136,-163L252,-203Z" fill="#394fb7" stroke="#394fb7" stroke-width="1.51"/><path d="M146,575L271,732L272,539Z" fill="#5567c8" stroke="#5567c8" stroke-width="1.51"/><path d="M180,426L272,539L273,384Z" fill="#5567c8" stroke="#5567c8" stroke-width="1.51"/><path d="M95,1162L297,1284L311,1128Z" fill="#3f54bc" stroke="#3f54bc" stroke-width="1.51"/><path d="M126,942L95,1162L311,1128Z" fill="#4157be" stroke="#4157be" stroke-width="1.51"/><path d="M271,732L105,819L325,831Z" fill="#4e61c5" stroke="#4e61c5" stroke-width="1.51"/><path d="M105,819L126,942L325,831Z" fill="#4a5dc3" stroke="#4a5dc3" stroke-width="1.51"/><path d="M177,268L273,384L321,295Z" fill="#5063c6" stroke="#5063c6" stroke-width="1.51"/><path d="M146,575L113,677L271,732Z" fill="#5265c7" stroke="#5265c7" stroke-width="1.51"/><path d="M95,1162L78,1298L297,1284Z" fill="#3b51b9" stroke="#3b51b9" stroke-width="1.51"/><path d="M113,677L105,819L271,732Z" fill="#4f61c5" stroke="#4f61c5" stroke-width="1.51"/><path d="M180,426L146,575L272,539Z" fill="#5768c9" stroke="#5768c9" stroke-width="1.51"/><path d="M177,268L180,426L273,384Z" fill="#5163c6" stroke="#5163c6" stroke-width="1.51"/><path d="M93,-17L152,46L237,-113Z" fill="#4055bc" stroke="#4055bc" stroke-width="1.51"/><path d="M136,-163L237,-113L252,-203Z" fill="#3c52ba" stroke="#3c52ba" stroke-width="1.51"/><path d="M136,-163L93,-17L237,-113Z" fill="#3d53ba" stroke="#3d53ba" stroke-width="1.51"/><path d="M30,1147L95,1162L126,942Z" fill="#3f54bb" stroke="#3f54bb" stroke-width="1.51"/><path d="M152,46L-16,74L177,268Z" fill="#4459bf" stroke="#4459bf" stroke-width="1.51"/><path d="M-16,74L2,275L177,268Z" fill="#465bc0" stroke="#465bc0" stroke-width="1.51"/><path d="M-47,485L146,575L180,426Z" fill="#5466c7" stroke="#5466c7" stroke-width="1.51"/><path d="M36,360L-47,485L180,426Z" fill="#5062c4" stroke="#5062c4" stroke-width="1.51"/><path d="M177,268L36,360L180,426Z" fill="#4f61c4" stroke="#4f61c4" stroke-width="1.51"/><path d="M-42,1001L30,1147L126,942Z" fill="#4055bc" stroke="#4055bc" stroke-width="1.51"/><path d="M2,275L36,360L177,268Z" fill="#4b5ec2" stroke="#4b5ec2" stroke-width="1.51"/><path d="M93,-17L-16,74L152,46Z" fill="#4055bc" stroke="#4055bc" stroke-width="1.51"/><path d="M-54,-105L93,-17L136,-163Z" fill="#3b52b9" stroke="#3b52b9" stroke-width="1.51"/><path d="M-25,674L113,677L146,575Z" fill="#5163c5" stroke="#5163c5" stroke-width="1.51"/><path d="M-47,485L-25,674L146,575Z" fill="#5364c5" stroke="#5364c5" stroke-width="1.51"/><path d="M-25,674L105,819L113,677Z" fill="#4d60c3" stroke="#4d60c3" stroke-width="1.51"/><path d="M105,819L-57,843L126,942Z" fill="#465bc0" stroke="#465bc0" stroke-width="1.51"/><path d="M-29,-237L-54,-105L136,-163Z" fill="#374eb6" stroke="#374eb6" stroke-width="1.51"/><path d="M-57,843L-42,1001L126,942Z" fill="#4358be" stroke="#4358be" stroke-width="1.51"/><path d="M30,1147L78,1298L95,1162Z" fill="#3a50b8" stroke="#3a50b8" stroke-width="1.51"/><path d="M-25,674L-57,843L105,819Z" fill="#4a5dc1" stroke="#4a5dc1" stroke-width="1.51"/><path d="M30,1147L-52,1334L78,1298Z" fill="#374eb6" stroke="#374eb6" stroke-width="1.51"/><path d="M-54,-105L-16,74L93,-17Z" fill="#3d53ba" stroke="#3d53ba" stroke-width="1.51"/><path d="M-16,74L-116,188L2,275Z" fill="#4358be" stroke="#4358be" stroke-width="1.51"/><path d="M-184,1298L-52,1334L30,1147Z" fill="#354cb4" stroke="#354cb4" stroke-width="1.51"/><path d="M2,275L-140,358L36,360Z" fill="#4a5dc1" stroke="#4a5dc1" stroke-width="1.51"/><path d="M-140,358L-47,485L36,360Z" fill="#4c5fc2" stroke="#4c5fc2" stroke-width="1.51"/><path d="M-207,1086L-184,1298L30,1147Z" fill="#364eb6" stroke="#364eb6" stroke-width="1.51"/><path d="M-42,1001L-207,1086L30,1147Z" fill="#3b52b9" stroke="#3b52b9" stroke-width="1.51"/><path d="M-139,-170L-54,-105L-29,-237Z" fill="#354db5" stroke="#354db5" stroke-width="1.51"/><path d="M-149,729L-57,843L-25,674Z" fill="#495cc0" stroke="#495cc0" stroke-width="1.51"/><path d="M-47,485L-158,510L-25,674Z" fill="#5163c4" stroke="#5163c4" stroke-width="1.51"/><path d="M-54,-105L-197,-31L-16,74Z" fill="#3a50b8" stroke="#3a50b8" stroke-width="1.51"/><path d="M-116,188L-140,358L2,275Z" fill="#465abf" stroke="#465abf" stroke-width="1.51"/><path d="M-158,510L-149,729L-25,674Z" fill="#4d60c2" stroke="#4d60c2" stroke-width="1.51"/><path d="M-197,-31L-166,115L-16,74Z" fill="#3c52b9" stroke="#3c52b9" stroke-width="1.51"/><path d="M-166,115L-116,188L-16,74Z" fill="#3f55bc" stroke="#3f55bc" stroke-width="1.51"/><path d="M-220,813L-219,1046L-57,843Z" fill="#4055bc" stroke="#4055bc" stroke-width="1.51"/><path d="M-57,843L-219,1046L-42,1001Z" fill="#3e54bb" stroke="#3e54bb" stroke-width="1.51"/><path d="M-140,358L-158,510L-47,485Z" fill="#4d60c2" stroke="#4d60c2" stroke-width="1.51"/><path d="M-219,1046L-207,1086L-42,1001Z" fill="#3a51b8" stroke="#3a51b8" stroke-width="1.51"/><path d="M-149,729L-220,813L-57,843Z" fill="#4559be" stroke="#4559be" stroke-width="1.51"/><path d="M-139,-170L-197,-31L-54,-105Z" fill="#364db5" stroke="#364db5" stroke-width="1.51"/><path d="M-166,115L-140,358L-116,188Z" fill="#4257bd" stroke="#4257bd" stroke-width="1.51"/><path d="M-158,510L-220,813L-149,729Z" fill="#495dc0" stroke="#495dc0" stroke-width="1.51"/><path d="M-166,115L-158,510L-140,358Z" fill="#475abf" stroke="#475abf" stroke-width="1.51"/><path d="M-166,115L-197,-31L-158,510Z" fill="#4156bc" stroke="#4156bc" stroke-width="1.51"/><path d="M-197,-31L-220,813L-158,510Z" fill="#4b5ec0" stroke="#4b5ec0" stroke-width="1.51"/><path d="M-207,1086L-219,1046L-184,1298Z" fill="#354db5" stroke="#354db5" stroke-width="1.51"/></svg>