<svg xmlns="http://www.w3.org/2000/svg" width="1920" height="1080"><path d="M185,1293L-71,1297L373,1302Z" fill="#232323" stroke="#232323" stroke-width="1.51"/><path d="M597,-180L746,-177L987,-201Z" fill="#151515" stroke="#151515" stroke-width="1.51"/><path d="M124,-231L597,-180L987,-201Z" fill="#121212" stroke="#121212" stroke-width="1.51"/><path d="M1225,1231L1003,1263L1537,1265Z" fill="#2e2e2e" stroke="#2e2e2e" stroke-width="1.51"/><path d="M576,1294L373,1302L1665,1284Z" fill="#2b2b2b" stroke="#2b2b2b" stroke-width="1.51"/><path d="M1537,1265L1003,1263L1665,1284Z" fill="#2f2f2f" stroke="#2f2f2f" stroke-width="1.51"/><path d="M1003,1263L576,1294L1665,1284Z" fill="#2d2d2d" stroke="#2d2d2d" stroke-width="1.51"/><path d="M124,-231L987,-201L1671,-197Z" fill="#161616" stroke="#161616" stroke-width="1.51"/><path d="M987,-201L1213,-182L1671,-197Z" fill="#191919" stroke="#191919" stroke-width="1.51"/><path d="M124,-231L1671,-197L2183,-204Z" fill="#191919" stroke="#191919" stroke-width="1.51"/><path d="M1671,-197L1899,-171L2183,-204Z" fill="#1d1d1d" stroke="#1d1d1d" stroke-width="1.51"/><path d="M1899,-171L2019,-142L2183,-204Z" fill="#1f1f1f" stroke="#1f1f1f" stroke-width="1.51"/><path d="M2110,634L2125,811L2218,-60Z" fill="#2b2b2b" stroke="#2b2b2b" stroke-width="1.51"/><path d="M2109,521L2110,634L2218,-60Z" fill="#292929" stroke="#292929" stroke-width="1.51"/><path d="M2128,200L2112,364L2218,-60Z" fill="#262626" stroke="#262626" stroke-width="1.51"/><path d="M2112,364L2109,521L2218,-60Z" fill="#272727" stroke="#272727" stroke-width="1.51"/><path d="M2125,811L2153,991L2218,-60Z" fill="#2d2d2d" stroke="#2d2d2d" stroke-width="1.51"/><path d="M2163,1073L2161,1223L2218,-60Z" fill="#2f2f2f" stroke="#2f2f2f" stroke-width="1.51"/><path d="M1983,-8L2128,200L2218,-60Z" fill="#232323" stroke="#232323" stroke-width="1.51"/><path d="M2183,-204L2019,-142L2218,-60Z" fill="#202020" stroke="#202020" stroke-width="1.51"/><path d="M2019,-142L1983,-8L2218,-60Z" fill="#212121" stroke="#212121" stroke-width="1.51"/><path d="M2153,991L2163,1073L2218,-60Z" fill="#2e2e2e" stroke="#2e2e2e" stroke-width="1.51"/><path d="M2053,445L2109,521L2112,364Z" fill="#2a2a2a" stroke="#2a2a2a" stroke-width="1.51"/><path d="M1983,-8L1943,81L2128,200Z" fill="#232323" stroke="#232323" stroke-width="1.51"/><path d="M2024,257L2112,364L2128,200Z" fill="#272727" stroke="#272727" stroke-width="1.51"/><path d="M2125,811L1979,886L2153,991Z" fill="#303030" stroke="#303030" stroke-width="1.51"/><path d="M1972,1078L2161,1223L2163,1073Z" fill="#333333" stroke="#333333" stroke-width="1.51"/><path d="M2110,634L1985,728L2125,811Z" fill="#2d2d2d" stroke="#2d2d2d" stroke-width="1.51"/><path d="M1972,1078L1948,1270L2161,1223Z" fill="#333333" stroke="#333333" stroke-width="1.51"/><path d="M2153,991L1972,1078L2163,1073Z" fill="#323232" stroke="#323232" stroke-width="1.51"/><path d="M1979,886L1972,1078L2153,991Z" fill="#313131" stroke="#313131" stroke-width="1.51"/><path d="M2109,521L2006,630L2110,634Z" fill="#2c2c2c" stroke="#2c2c2c" stroke-width="1.51"/><path d="M2006,630L1985,728L2110,634Z" fill="#2d2d2d" stroke="#2d2d2d" stroke-width="1.51"/><path d="M1943,81L2024,257L2128,200Z" fill="#252525" stroke="#252525" stroke-width="1.51"/><path d="M1985,728L1979,886L2125,811Z" fill="#2f2f2f" stroke="#2f2f2f" stroke-width="1.51"/><path d="M2024,257L2053,445L2112,364Z" fill="#282828" stroke="#282828" stroke-width="1.51"/><path d="M2053,445L2006,630L2109,521Z" fill="#2b2b2b" stroke="#2b2b2b" stroke-width="1.51"/><path d="M1882,1208L1948,1270L1972,1078Z" fill="#323232" stroke="#323232" stroke-width="1.51"/><path d="M1902,972L1972,1078L1979,886Z" fill="#303030" stroke="#303030" stroke-width="1.51"/><path d="M2024,257L1896,406L2053,445Z" fill="#282828" stroke="#282828" stroke-width="1.51"/><path d="M1896,406L2006,630L2053,445Z" fill="#2a2a2a" stroke="#2a2a2a" stroke-width="1.51"/><path d="M1873,802L1979,886L1985,728Z" fill="#2d2d2d" stroke="#2d2d2d" stroke-width="1.51"/><path d="M1896,406L1833,658L2006,630Z" fill="#2b2b2b" stroke="#2b2b2b" stroke-width="1.51"/><path d="M1899,-171L1983,-8L2019,-142Z" fill="#1f1f1f" stroke="#1f1f1f" stroke-width="1.51"/><path d="M1843,298L1896,406L2024,257Z" fill="#262626" stroke="#262626" stroke-width="1.51"/><path d="M1943,81L1844,105L2024,257Z" fill="#232323" stroke="#232323" stroke-width="1.51"/><path d="M1844,105L1843,298L2024,257Z" fill="#252525" stroke="#252525" stroke-width="1.51"/><path d="M1213,-182L1544,-155L1671,-197Z" fill="#1a1a1a" stroke="#1a1a1a" stroke-width="1.51"/><path d="M1852,1138L1882,1208L1972,1078Z" fill="#323232" stroke="#323232" stroke-width="1.51"/><path d="M1833,658L1985,728L2006,630Z" fill="#2c2c2c" stroke="#2c2c2c" stroke-width="1.51"/><path d="M1868,24L1943,81L1983,-8Z" fill="#212121" stroke="#212121" stroke-width="1.51"/><path d="M1899,-171L1868,24L1983,-8Z" fill="#202020" stroke="#202020" stroke-width="1.51"/><path d="M1833,658L1873,802L1985,728Z" fill="#2d2d2d" stroke="#2d2d2d" stroke-width="1.51"/><path d="M1873,802L1902,972L1979,886Z" fill="#2e2e2e" stroke="#2e2e2e" stroke-width="1.51"/><path d="M1902,972L1852,1138L1972,1078Z" fill="#313131" stroke="#313131" stroke-width="1.51"/><path d="M1667,478L1833,658L1896,406Z" fill="#292929" stroke="#292929" stroke-width="1.51"/><path d="M1882,1208L1665,1284L1948,1270Z" fill="#323232" stroke="#323232" stroke-width="1.51"/><path d="M1868,24L1844,105L1943,81Z" fill="#212121" stroke="#212121" stroke-width="1.51"/><path d="M1213,-182L1346,-143L1544,-155Z" fill="#1a1a1a" stroke="#1a1a1a" stroke-width="1.51"/><path d="M1708,165L1843,298L1844,105Z" fill="#232323" stroke="#232323" stroke-width="1.51"/><path d="M1677,-74L1868,24L1899,-171Z" fill="#1f1f1f" stroke="#1f1f1f" stroke-width="1.51"/><path d="M1671,-197L1677,-74L1899,-171Z" fill="#1d1d1d" stroke="#1d1d1d" stroke-width="1.51"/><path d="M1873,802L1719,975L1902,972Z" fill="#2e2e2e" stroke="#2e2e2e" stroke-width="1.51"/><path d="M1719,975L1852,1138L1902,972Z" fill="#2f2f2f" stroke="#2f2f2f" stroke-width="1.51"/><path d="M1719,975L1714,1116L1852,1138Z" fill="#2f2f2f" stroke="#2f2f2f" stroke-width="1.51"/><path d="M1843,298L1667,478L1896,406Z" fill="#272727" stroke="#272727" stroke-width="1.51"/><path d="M1852,1138L1714,1116L1882,1208Z" fill="#313131" stroke="#313131" stroke-width="1.51"/><path d="M1714,1116L1665,1284L1882,1208Z" fill="#313131" stroke="#313131" stroke-width="1.51"/><path d="M1833,658L1629,720L1873,802Z" fill="#2c2c2c" stroke="#2c2c2c" stroke-width="1.51"/><path d="M1629,720L1719,975L1873,802Z" fill="#2c2c2c" stroke="#2c2c2c" stroke-width="1.51"/><path d="M1677,-74L1844,105L1868,24Z" fill="#202020" stroke="#202020" stroke-width="1.51"/><path d="M1667,478L1636,633L1833,658Z" fill="#292929" stroke="#292929" stroke-width="1.51"/><path d="M1708,165L1668,242L1843,298Z" fill="#232323" stroke="#232323" stroke-width="1.51"/><path d="M1668,242L1667,478L1843,298Z" fill="#252525" stroke="#252525" stroke-width="1.51"/><path d="M1677,-74L1708,165L1844,105Z" fill="#202020" stroke="#202020" stroke-width="1.51"/><path d="M1636,633L1629,720L1833,658Z" fill="#2a2a2a" stroke="#2a2a2a" stroke-width="1.51"/><path d="M1324,1219L1225,1231L1537,1265Z" fill="#2e2e2e" stroke="#2e2e2e" stroke-width="1.51"/><path d="M1464,360L1667,478L1668,242Z" fill="#252525" stroke="#252525" stroke-width="1.51"/><path d="M1677,-74L1534,110L1708,165Z" fill="#1f1f1f" stroke="#1f1f1f" stroke-width="1.51"/><path d="M1581,1140L1665,1284L1714,1116Z" fill="#303030" stroke="#303030" stroke-width="1.51"/><path d="M1629,720L1520,796L1719,975Z" fill="#2b2b2b" stroke="#2b2b2b" stroke-width="1.51"/><path d="M1520,796L1521,941L1719,975Z" fill="#2c2c2c" stroke="#2c2c2c" stroke-width="1.51"/><path d="M1581,1140L1714,1116L1719,975Z" fill="#2f2f2f" stroke="#2f2f2f" stroke-width="1.51"/><path d="M1521,941L1581,1140L1719,975Z" fill="#2e2e2e" stroke="#2e2e2e" stroke-width="1.51"/><path d="M1534,110L1668,242L1708,165Z" fill="#212121" stroke="#212121" stroke-width="1.51"/><path d="M767,1253L576,1294L1003,1263Z" fill="#2a2a2a" stroke="#2a2a2a" stroke-width="1.51"/><path d="M1581,1140L1537,1265L1665,1284Z" fill="#303030" stroke="#303030" stroke-width="1.51"/><path d="M1464,360L1507,517L1667,478Z" fill="#262626" stroke="#262626" stroke-width="1.51"/><path d="M1514,588L1636,633L1667,478Z" fill="#282828" stroke="#282828" stroke-width="1.51"/><path d="M1507,517L1514,588L1667,478Z" fill="#272727" stroke="#272727" stroke-width="1.51"/><path d="M1544,-155L1470,-8L1677,-74Z" fill="#1c1c1c" stroke="#1c1c1c" stroke-width="1.51"/><path d="M1470,-8L1534,110L1677,-74Z" fill="#1e1e1e" stroke="#1e1e1e" stroke-width="1.51"/><path d="M1671,-197L1544,-155L1677,-74Z" fill="#1c1c1c" stroke="#1c1c1c" stroke-width="1.51"/><path d="M1534,110L1464,360L1668,242Z" fill="#222222" stroke="#222222" stroke-width="1.51"/><path d="M1413,165L1464,360L1534,110Z" fill="#212121" stroke="#212121" stroke-width="1.51"/><path d="M1514,588L1629,720L1636,633Z" fill="#292929" stroke="#292929" stroke-width="1.51"/><path d="M1514,588L1520,796L1629,720Z" fill="#292929" stroke="#292929" stroke-width="1.51"/><path d="M1514,588L1411,620L1520,796Z" fill="#282828" stroke="#282828" stroke-width="1.51"/><path d="M1404,1062L1537,1265L1581,1140Z" fill="#2e2e2e" stroke="#2e2e2e" stroke-width="1.51"/><path d="M1521,941L1404,1062L1581,1140Z" fill="#2d2d2d" stroke="#2d2d2d" stroke-width="1.51"/><path d="M1411,620L1390,808L1520,796Z" fill="#292929" stroke="#292929" stroke-width="1.51"/><path d="M1520,796L1404,906L1521,941Z" fill="#2b2b2b" stroke="#2b2b2b" stroke-width="1.51"/><path d="M1404,1062L1324,1219L1537,1265Z" fill="#2e2e2e" stroke="#2e2e2e" stroke-width="1.51"/><path d="M1401,-46L1470,-8L1544,-155Z" fill="#1c1c1c" stroke="#1c1c1c" stroke-width="1.51"/><path d="M1346,-143L1401,-46L1544,-155Z" fill="#1b1b1b" stroke="#1b1b1b" stroke-width="1.51"/><path d="M1464,360L1371,483L1507,517Z" fill="#252525" stroke="#252525" stroke-width="1.51"/><path d="M1390,808L1404,906L1520,796Z" fill="#2a2a2a" stroke="#2a2a2a" stroke-width="1.51"/><path d="M1470,-8L1413,165L1534,110Z" fill="#1f1f1f" stroke="#1f1f1f" stroke-width="1.51"/><path d="M1413,165L1317,280L1464,360Z" fill="#222222" stroke="#222222" stroke-width="1.51"/><path d="M1404,906L1404,1062L1521,941Z" fill="#2c2c2c" stroke="#2c2c2c" stroke-width="1.51"/><path d="M1507,517L1411,620L1514,588Z" fill="#272727" stroke="#272727" stroke-width="1.51"/><path d="M1371,483L1411,620L1507,517Z" fill="#262626" stroke="#262626" stroke-width="1.51"/><path d="M1401,-46L1264,136L1413,165Z" fill="#1e1e1e" stroke="#1e1e1e" stroke-width="1.51"/><path d="M1401,-46L1413,165L1470,-8Z" fill="#1e1e1e" stroke="#1e1e1e" stroke-width="1.51"/><path d="M1317,280L1371,483L1464,360Z" fill="#232323" stroke="#232323" stroke-width="1.51"/><path d="M1317,280L1204,440L1371,483Z" fill="#232323" stroke="#232323" stroke-width="1.51"/><path d="M1214,1047L1324,1219L1404,1062Z" fill="#2c2c2c" stroke="#2c2c2c" stroke-width="1.51"/><path d="M1214,1047L1404,1062L1404,906Z" fill="#2b2b2b" stroke="#2b2b2b" stroke-width="1.51"/><path d="M1371,483L1173,562L1411,620Z" fill="#252525" stroke="#252525" stroke-width="1.51"/><path d="M1215,803L1390,808L1411,620Z" fill="#282828" stroke="#282828" stroke-width="1.51"/><path d="M1173,562L1215,803L1411,620Z" fill="#272727" stroke="#272727" stroke-width="1.51"/><path d="M1264,136L1317,280L1413,165Z" fill="#202020" stroke="#202020" stroke-width="1.51"/><path d="M1147,-82L1264,136L1401,-46Z" fill="#1c1c1c" stroke="#1c1c1c" stroke-width="1.51"/><path d="M1390,808L1215,803L1404,906Z" fill="#292929" stroke="#292929" stroke-width="1.51"/><path d="M1215,803L1214,1047L1404,906Z" fill="#2a2a2a" stroke="#2a2a2a" stroke-width="1.51"/><path d="M1346,-143L1147,-82L1401,-46Z" fill="#1b1b1b" stroke="#1b1b1b" stroke-width="1.51"/><path d="M1143,986L1214,1047L1215,803Z" fill="#2a2a2a" stroke="#2a2a2a" stroke-width="1.51"/><path d="M1204,440L1173,562L1371,483Z" fill="#242424" stroke="#242424" stroke-width="1.51"/><path d="M1201,295L1204,440L1317,280Z" fill="#212121" stroke="#212121" stroke-width="1.51"/><path d="M1214,1047L1225,1231L1324,1219Z" fill="#2d2d2d" stroke="#2d2d2d" stroke-width="1.51"/><path d="M1213,-182L1147,-82L1346,-143Z" fill="#191919" stroke="#191919" stroke-width="1.51"/><path d="M1264,136L1201,295L1317,280Z" fill="#202020" stroke="#202020" stroke-width="1.51"/><path d="M1173,562L1005,671L1215,803Z" fill="#262626" stroke="#262626" stroke-width="1.51"/><path d="M1214,1047L1104,1150L1225,1231Z" fill="#2c2c2c" stroke="#2c2c2c" stroke-width="1.51"/><path d="M1070,86L1201,295L1264,136Z" fill="#1e1e1e" stroke="#1e1e1e" stroke-width="1.51"/><path d="M1147,-82L1070,86L1264,136Z" fill="#1c1c1c" stroke="#1c1c1c" stroke-width="1.51"/><path d="M1070,86L1034,265L1201,295Z" fill="#1e1e1e" stroke="#1e1e1e" stroke-width="1.51"/><path d="M1201,295L997,398L1204,440Z" fill="#212121" stroke="#212121" stroke-width="1.51"/><path d="M1094,967L1143,986L1215,803Z" fill="#292929" stroke="#292929" stroke-width="1.51"/><path d="M1049,838L1094,967L1215,803Z" fill="#282828" stroke="#282828" stroke-width="1.51"/><path d="M1005,671L1049,838L1215,803Z" fill="#272727" stroke="#272727" stroke-width="1.51"/><path d="M1104,1150L1003,1263L1225,1231Z" fill="#2c2c2c" stroke="#2c2c2c" stroke-width="1.51"/><path d="M1034,265L997,398L1201,295Z" fill="#202020" stroke="#202020" stroke-width="1.51"/><path d="M1143,986L1104,1150L1214,1047Z" fill="#2b2b2b" stroke="#2b2b2b" stroke-width="1.51"/><path d="M987,-201L1147,-82L1213,-182Z" fill="#181818" stroke="#181818" stroke-width="1.51"/><path d="M997,398L1173,562L1204,440Z" fill="#222222" stroke="#222222" stroke-width="1.51"/><path d="M1094,967L1104,1150L1143,986Z" fill="#2a2a2a" stroke="#2a2a2a" stroke-width="1.51"/><path d="M988,-28L1070,86L1147,-82Z" fill="#1a1a1a" stroke="#1a1a1a" stroke-width="1.51"/><path d="M997,398L1005,671L1173,562Z" fill="#232323" stroke="#232323" stroke-width="1.51"/><path d="M987,-201L988,-28L1147,-82Z" fill="#181818" stroke="#181818" stroke-width="1.51"/><path d="M937,1233L767,1253L1003,1263Z" fill="#2b2b2b" stroke="#2b2b2b" stroke-width="1.51"/><path d="M937,1233L1003,1263L1104,1150Z" fill="#2c2c2c" stroke="#2c2c2c" stroke-width="1.51"/><path d="M1094,967L844,1082L1104,1150Z" fill="#2a2a2a" stroke="#2a2a2a" stroke-width="1.51"/><path d="M844,1082L937,1233L1104,1150Z" fill="#2a2a2a" stroke="#2a2a2a" stroke-width="1.51"/><path d="M997,398L894,404L1005,671Z" fill="#222222" stroke="#222222" stroke-width="1.51"/><path d="M872,94L1034,265L1070,86Z" fill="#1c1c1c" stroke="#1c1c1c" stroke-width="1.51"/><path d="M1049,838L821,981L1094,967Z" fill="#282828" stroke="#282828" stroke-width="1.51"/><path d="M821,981L844,1082L1094,967Z" fill="#282828" stroke="#282828" stroke-width="1.51"/><path d="M894,404L840,658L1005,671Z" fill="#232323" stroke="#232323" stroke-width="1.51"/><path d="M1005,671L918,722L1049,838Z" fill="#252525" stroke="#252525" stroke-width="1.51"/><path d="M927,38L872,94L1070,86Z" fill="#1b1b1b" stroke="#1b1b1b" stroke-width="1.51"/><path d="M988,-28L927,38L1070,86Z" fill="#1b1b1b" stroke="#1b1b1b" stroke-width="1.51"/><path d="M872,94L889,298L1034,265Z" fill="#1d1d1d" stroke="#1d1d1d" stroke-width="1.51"/><path d="M889,298L997,398L1034,265Z" fill="#1f1f1f" stroke="#1f1f1f" stroke-width="1.51"/><path d="M918,722L821,981L1049,838Z" fill="#262626" stroke="#262626" stroke-width="1.51"/><path d="M746,-177L816,-143L987,-201Z" fill="#161616" stroke="#161616" stroke-width="1.51"/><path d="M987,-201L816,-143L988,-28Z" fill="#171717" stroke="#171717" stroke-width="1.51"/><path d="M889,298L894,404L997,398Z" fill="#1f1f1f" stroke="#1f1f1f" stroke-width="1.51"/><path d="M840,658L918,722L1005,671Z" fill="#242424" stroke="#242424" stroke-width="1.51"/><path d="M730,811L821,981L918,722Z" fill="#252525" stroke="#252525" stroke-width="1.51"/><path d="M816,-143L927,38L988,-28Z" fill="#181818" stroke="#181818" stroke-width="1.51"/><path d="M697,602L840,658L894,404Z" fill="#212121" stroke="#212121" stroke-width="1.51"/><path d="M816,-143L754,-7L927,38Z" fill="#181818" stroke="#181818" stroke-width="1.51"/><path d="M844,1082L765,1127L937,1233Z" fill="#292929" stroke="#292929" stroke-width="1.51"/><path d="M765,1127L767,1253L937,1233Z" fill="#2a2a2a" stroke="#2a2a2a" stroke-width="1.51"/><path d="M872,94L668,159L889,298Z" fill="#1b1b1b" stroke="#1b1b1b" stroke-width="1.51"/><path d="M657,448L697,602L894,404Z" fill="#1f1f1f" stroke="#1f1f1f" stroke-width="1.51"/><path d="M754,-7L872,94L927,38Z" fill="#191919" stroke="#191919" stroke-width="1.51"/><path d="M840,658L730,811L918,722Z" fill="#242424" stroke="#242424" stroke-width="1.51"/><path d="M668,159L687,345L889,298Z" fill="#1c1c1c" stroke="#1c1c1c" stroke-width="1.51"/><path d="M889,298L687,345L894,404Z" fill="#1e1e1e" stroke="#1e1e1e" stroke-width="1.51"/><path d="M687,345L657,448L894,404Z" fill="#1e1e1e" stroke="#1e1e1e" stroke-width="1.51"/><path d="M754,-7L668,159L872,94Z" fill="#191919" stroke="#191919" stroke-width="1.51"/><path d="M730,811L738,985L821,981Z" fill="#252525" stroke="#252525" stroke-width="1.51"/><path d="M697,602L730,811L840,658Z" fill="#232323" stroke="#232323" stroke-width="1.51"/><path d="M821,981L738,985L844,1082Z" fill="#272727" stroke="#272727" stroke-width="1.51"/><path d="M738,985L765,1127L844,1082Z" fill="#272727" stroke="#272727" stroke-width="1.51"/><path d="M746,-177L754,-7L816,-143Z" fill="#161616" stroke="#161616" stroke-width="1.51"/><path d="M668,159L583,262L687,345Z" fill="#1a1a1a" stroke="#1a1a1a" stroke-width="1.51"/><path d="M697,602L527,794L730,811Z" fill="#222222" stroke="#222222" stroke-width="1.51"/><path d="M730,811L537,874L738,985Z" fill="#242424" stroke="#242424" stroke-width="1.51"/><path d="M746,-177L597,-180L754,-7Z" fill="#151515" stroke="#151515" stroke-width="1.51"/><path d="M738,985L525,1112L765,1127Z" fill="#262626" stroke="#262626" stroke-width="1.51"/><path d="M525,1112L576,1294L765,1127Z" fill="#272727" stroke="#272727" stroke-width="1.51"/><path d="M765,1127L576,1294L767,1253Z" fill="#282828" stroke="#282828" stroke-width="1.51"/><path d="M124,-231L452,-123L597,-180Z" fill="#101010" stroke="#101010" stroke-width="1.51"/><path d="M493,-73L668,159L754,-7Z" fill="#171717" stroke="#171717" stroke-width="1.51"/><path d="M597,-180L493,-73L754,-7Z" fill="#141414" stroke="#141414" stroke-width="1.51"/><path d="M496,645L527,794L697,602Z" fill="#202020" stroke="#202020" stroke-width="1.51"/><path d="M537,874L525,1112L738,985Z" fill="#242424" stroke="#242424" stroke-width="1.51"/><path d="M493,-73L495,150L668,159Z" fill="#171717" stroke="#171717" stroke-width="1.51"/><path d="M527,794L537,874L730,811Z" fill="#222222" stroke="#222222" stroke-width="1.51"/><path d="M611,447L657,448L687,345Z" fill="#1d1d1d" stroke="#1d1d1d" stroke-width="1.51"/><path d="M657,448L611,447L697,602Z" fill="#1f1f1f" stroke="#1f1f1f" stroke-width="1.51"/><path d="M611,447L496,645L697,602Z" fill="#1f1f1f" stroke="#1f1f1f" stroke-width="1.51"/><path d="M583,262L611,447L687,345Z" fill="#1c1c1c" stroke="#1c1c1c" stroke-width="1.51"/><path d="M495,150L583,262L668,159Z" fill="#191919" stroke="#191919" stroke-width="1.51"/><path d="M124,-231L224,-136L452,-123Z" fill="#0e0e0e" stroke="#0e0e0e" stroke-width="1.51"/><path d="M402,901L525,1112L537,874Z" fill="#232323" stroke="#232323" stroke-width="1.51"/><path d="M525,1112L463,1127L576,1294Z" fill="#262626" stroke="#262626" stroke-width="1.51"/><path d="M420,631L496,645L611,447Z" fill="#1e1e1e" stroke="#1e1e1e" stroke-width="1.51"/><path d="M349,447L420,631L611,447Z" fill="#1d1d1d" stroke="#1d1d1d" stroke-width="1.51"/><path d="M409,347L349,447L611,447Z" fill="#1b1b1b" stroke="#1b1b1b" stroke-width="1.51"/><path d="M583,262L409,347L611,447Z" fill="#1b1b1b" stroke="#1b1b1b" stroke-width="1.51"/><path d="M452,-123L493,-73L597,-180Z" fill="#121212" stroke="#121212" stroke-width="1.51"/><path d="M402,901L463,1127L525,1112Z" fill="#242424" stroke="#242424" stroke-width="1.51"/><path d="M463,1127L373,1302L576,1294Z" fill="#262626" stroke="#262626" stroke-width="1.51"/><path d="M495,150L409,347L583,262Z" fill="#191919" stroke="#191919" stroke-width="1.51"/><path d="M493,-73L416,-67L495,150Z" fill="#141414" stroke="#141414" stroke-width="1.51"/><path d="M341,176L409,347L495,150Z" fill="#181818" stroke="#181818" stroke-width="1.51"/><path d="M496,645L386,776L527,794Z" fill="#202020" stroke="#202020" stroke-width="1.51"/><path d="M527,794L402,901L537,874Z" fill="#222222" stroke="#222222" stroke-width="1.51"/><path d="M416,-67L341,176L495,150Z" fill="#151515" stroke="#151515" stroke-width="1.51"/><path d="M420,631L386,776L496,645Z" fill="#1f1f1f" stroke="#1f1f1f" stroke-width="1.51"/><path d="M386,776L402,901L527,794Z" fill="#212121" stroke="#212121" stroke-width="1.51"/><path d="M402,901L223,1040L463,1127Z" fill="#222222" stroke="#222222" stroke-width="1.51"/><path d="M452,-123L416,-67L493,-73Z" fill="#121212" stroke="#121212" stroke-width="1.51"/><path d="M304,-66L341,176L416,-67Z" fill="#131313" stroke="#131313" stroke-width="1.51"/><path d="M224,-136L304,-66L452,-123Z" fill="#101010" stroke="#101010" stroke-width="1.51"/><path d="M223,1040L373,1302L463,1127Z" fill="#242424" stroke="#242424" stroke-width="1.51"/><path d="M304,-66L416,-67L452,-123Z" fill="#121212" stroke="#121212" stroke-width="1.51"/><path d="M304,-66L303,182L341,176Z" fill="#151515" stroke="#151515" stroke-width="1.51"/><path d="M223,1040L185,1293L373,1302Z" fill="#242424" stroke="#242424" stroke-width="1.51"/><path d="M197,611L305,808L386,776Z" fill="#1e1e1e" stroke="#1e1e1e" stroke-width="1.51"/><path d="M299,876L223,1040L402,901Z" fill="#212121" stroke="#212121" stroke-width="1.51"/><path d="M386,776L305,808L402,901Z" fill="#202020" stroke="#202020" stroke-width="1.51"/><path d="M305,808L299,876L402,901Z" fill="#202020" stroke="#202020" stroke-width="1.51"/><path d="M303,182L195,298L409,347Z" fill="#181818" stroke="#181818" stroke-width="1.51"/><path d="M341,176L303,182L409,347Z" fill="#171717" stroke="#171717" stroke-width="1.51"/><path d="M197,611L386,776L420,631Z" fill="#1e1e1e" stroke="#1e1e1e" stroke-width="1.51"/><path d="M349,447L197,611L420,631Z" fill="#1c1c1c" stroke="#1c1c1c" stroke-width="1.51"/><path d="M304,434L197,611L349,447Z" fill="#1b1b1b" stroke="#1b1b1b" stroke-width="1.51"/><path d="M195,298L304,434L409,347Z" fill="#191919" stroke="#191919" stroke-width="1.51"/><path d="M304,434L349,447L409,347Z" fill="#1a1a1a" stroke="#1a1a1a" stroke-width="1.51"/><path d="M124,1207L185,1293L223,1040Z" fill="#222222" stroke="#222222" stroke-width="1.51"/><path d="M86,-34L303,182L304,-66Z" fill="#121212" stroke="#121212" stroke-width="1.51"/><path d="M86,-34L51,169L303,182Z" fill="#131313" stroke="#131313" stroke-width="1.51"/><path d="M56,417L197,611L304,434Z" fill="#1a1a1a" stroke="#1a1a1a" stroke-width="1.51"/><path d="M224,-136L86,-34L304,-66Z" fill="#0f0f0f" stroke="#0f0f0f" stroke-width="1.51"/><path d="M41,751L299,876L305,808Z" fill="#1e1e1e" stroke="#1e1e1e" stroke-width="1.51"/><path d="M197,611L41,751L305,808Z" fill="#1d1d1d" stroke="#1d1d1d" stroke-width="1.51"/><path d="M41,751L24,887L299,876Z" fill="#1d1d1d" stroke="#1d1d1d" stroke-width="1.51"/><path d="M195,298L56,417L304,434Z" fill="#181818" stroke="#181818" stroke-width="1.51"/><path d="M24,887L223,1040L299,876Z" fill="#1f1f1f" stroke="#1f1f1f" stroke-width="1.51"/><path d="M51,169L195,298L303,182Z" fill="#151515" stroke="#151515" stroke-width="1.51"/><path d="M-245,-169L-144,-146L124,-231Z" fill="#070707" stroke="#070707" stroke-width="1.51"/><path d="M70,304L56,417L195,298Z" fill="#161616" stroke="#161616" stroke-width="1.51"/><path d="M51,169L70,304L195,298Z" fill="#151515" stroke="#151515" stroke-width="1.51"/><path d="M56,417L58,604L197,611Z" fill="#1a1a1a" stroke="#1a1a1a" stroke-width="1.51"/><path d="M58,604L41,751L197,611Z" fill="#1b1b1b" stroke="#1b1b1b" stroke-width="1.51"/><path d="M19,1103L124,1207L223,1040Z" fill="#212121" stroke="#212121" stroke-width="1.51"/><path d="M24,887L19,1103L223,1040Z" fill="#1f1f1f" stroke="#1f1f1f" stroke-width="1.51"/><path d="M124,-231L86,-34L224,-136Z" fill="#0d0d0d" stroke="#0d0d0d" stroke-width="1.51"/><path d="M124,1207L-71,1297L185,1293Z" fill="#222222" stroke="#222222" stroke-width="1.51"/><path d="M-71,1048L19,1103L24,887Z" fill="#1e1e1e" stroke="#1e1e1e" stroke-width="1.51"/><path d="M19,1103L-71,1297L124,1207Z" fill="#202020" stroke="#202020" stroke-width="1.51"/><path d="M-107,-80L86,-34L124,-231Z" fill="#0b0b0b" stroke="#0b0b0b" stroke-width="1.51"/><path d="M-144,-146L-107,-80L124,-231Z" fill="#090909" stroke="#090909" stroke-width="1.51"/><path d="M56,417L-131,502L58,604Z" fill="#181818" stroke="#181818" stroke-width="1.51"/><path d="M-131,502L-80,612L58,604Z" fill="#191919" stroke="#191919" stroke-width="1.51"/><path d="M-80,612L41,751L58,604Z" fill="#1a1a1a" stroke="#1a1a1a" stroke-width="1.51"/><path d="M51,169L-115,269L70,304Z" fill="#131313" stroke="#131313" stroke-width="1.51"/><path d="M-134,81L51,169L86,-34Z" fill="#101010" stroke="#101010" stroke-width="1.51"/><path d="M-107,-80L-134,81L86,-34Z" fill="#0d0d0d" stroke="#0d0d0d" stroke-width="1.51"/><path d="M-45,770L24,887L41,751Z" fill="#1c1c1c" stroke="#1c1c1c" stroke-width="1.51"/><path d="M-80,612L-45,770L41,751Z" fill="#1a1a1a" stroke="#1a1a1a" stroke-width="1.51"/><path d="M-115,269L56,417L70,304Z" fill="#151515" stroke="#151515" stroke-width="1.51"/><path d="M-131,960L-71,1048L24,887Z" fill="#1d1d1d" stroke="#1d1d1d" stroke-width="1.51"/><path d="M-115,269L-131,502L56,417Z" fill="#151515" stroke="#151515" stroke-width="1.51"/><path d="M-134,81L-115,269L51,169Z" fill="#111111" stroke="#111111" stroke-width="1.51"/><path d="M-71,1048L-71,1297L19,1103Z" fill="#1f1f1f" stroke="#1f1f1f" stroke-width="1.51"/><path d="M-45,770L-131,960L24,887Z" fill="#1c1c1c" stroke="#1c1c1c" stroke-width="1.51"/><path d="M-295,403L-131,502L-115,269Z" fill="#141414" stroke="#141414" stroke-width="1.51"/><path d="M-266,1090L-286,1283L-71,1297Z" fill="#1e1e1e" stroke="#1e1e1e" stroke-width="1.51"/><path d="M-266,1090L-71,1297L-71,1048Z" fill="#1e1e1e" stroke="#1e1e1e" stroke-width="1.51"/><path d="M-80,612L-181,797L-45,770Z" fill="#1a1a1a" stroke="#1a1a1a" stroke-width="1.51"/><path d="M-181,797L-131,960L-45,770Z" fill="#1b1b1b" stroke="#1b1b1b" stroke-width="1.51"/><path d="M-181,797L-199,943L-131,960Z" fill="#1b1b1b" stroke="#1b1b1b" stroke-width="1.51"/><path d="M-134,81L-242,175L-115,269Z" fill="#0f0f0f" stroke="#0f0f0f" stroke-width="1.51"/><path d="M-283,323L-295,403L-115,269Z" fill="#121212" stroke="#121212" stroke-width="1.51"/><path d="M-237,-6L-134,81L-107,-80Z" fill="#0b0b0b" stroke="#0b0b0b" stroke-width="1.51"/><path d="M-306,585L-181,797L-80,612Z" fill="#181818" stroke="#181818" stroke-width="1.51"/><path d="M-131,960L-266,1090L-71,1048Z" fill="#1d1d1d" stroke="#1d1d1d" stroke-width="1.51"/><path d="M-131,502L-306,585L-80,612Z" fill="#171717" stroke="#171717" stroke-width="1.51"/><path d="M-199,943L-266,1090L-131,960Z" fill="#1c1c1c" stroke="#1c1c1c" stroke-width="1.51"/><path d="M-144,-146L-237,-6L-107,-80Z" fill="#090909" stroke="#090909" stroke-width="1.51"/><path d="M-242,175L-283,323L-115,269Z" fill="#111111" stroke="#111111" stroke-width="1.51"/><path d="M-245,-169L-237,-6L-144,-146Z" fill="#070707" stroke="#070707" stroke-width="1.51"/><path d="M-295,403L-306,585L-131,502Z" fill="#151515" stroke="#151515" stroke-width="1.51"/><path d="M-237,-6L-242,175L-134,81Z" fill="#0d0d0d" stroke="#0d0d0d" stroke-width="1.51"/><path d="M-306,585L-199,943L-181,797Z" fill="#191919" stroke="#191919" stroke-width="1.51"/><path d="M-306,585L-266,1090L-199,943Z" fill="#1a1a1a" stroke="#1a1a1a" stroke-width="1.51"/><path d="M-283,323L-242,175L-237,-6Z" fill="#0e0e0e" stroke="#0e0e0e" stroke-width="1.51"/><path d="M-245,-169L-283,323L-237,-6Z" fill="#0b0b0b" stroke="#0b0b0b" stroke-width="1.51"/><path d="M-295,403L-283,323L-245,-169Z" fill="#0f0f0f" stroke="#0f0f0f" stroke-width="1.51"/><path d="M-306,585L-286,1283L-266,1090Z" fill="#1b1b1b" stroke="#1b1b1b" stroke-width="1.51"/></svg>